<svg xmlns="http://www.w3.org/2000/svg" viewBox="0 0 238.4 152.25">
    <defs>
        <style>
            .cls-1{font-size:50px;font-family:AvenirNextCondensed-UltraLight, Avenir Next Condensed;}.cls-2,.cls-3{fill:#ff6056;}.cls-3{letter-spacing:-0.04em;}.cls-4{letter-spacing:-0.01em;}.cls-5{letter-spacing:0em;}
        </style>
    </defs>
    <title>logo</title>
    <g id="Layer_2" data-name="Layer 2">
        <g id="Layer_1-2" data-name="Layer 1">
            <text class="cls-1" transform="translate(0 139.75)">
                <tspan class="cls-2">SO</tspan>
                <tspan class="cls-3" x="48.2" y="0">
                    L
                </tspan>
                <tspan class="cls-2" x="62.4" y="0">
                    VE
                </tspan>
                <tspan x="102.75" y="0">
                    GAR
                </tspan>
                <tspan class="cls-4" x="171.85" y="0">
                    A
                </tspan>
                <tspan class="cls-5" x="192.65" y="0">
                    GE
                </tspan>
            </text>
            <path class="cls-2" d="M148.35,62.69,162.07,49a6.1,6.1,0,0,0,0-8.61L148.35,26.62c7.7-.47,13.16-9.22,7.54-17.47A4.49,4.49,0,0,0,154.7,8c-8.25-5.62-17-.16-17.47,7.54L123.5,1.78a6.1,6.1,0,0,0-8.61,0L101,15.67c7.88.22,13.59,9.11,7.88,17.49a4.38,4.38,0,0,1-1.17,1.18c-8.38,5.71-17.27,0-17.5-7.89L76.32,40.35a6.1,6.1,0,0,0,0,8.61L90.05,62.69c-7.7.47-13.16,9.21-7.54,17.47a4.42,4.42,0,0,0,1.18,1.18c8.26,5.62,17,.16,17.47-7.54l13.73,13.73a6.1,6.1,0,0,0,8.61,0L137.23,73.8c.47,7.7,9.22,13.16,17.47,7.54a4.45,4.45,0,0,0,1.19-1.18C161.51,71.9,156.05,63.16,148.35,62.69Z"/>
        </g>
    </g>
</svg>